<svg width="57" height="57" viewBox="0 0 57 57" fill="none" xmlns="http://www.w3.org/2000/svg">
<path d="M43.6406 0H13.3594C5.9812 0 0 5.9812 0 13.3594V43.6406C0 51.0188 5.9812 57 13.3594 57H43.6406C51.0188 57 57 51.0188 57 43.6406V13.3594C57 5.9812 51.0188 0 43.6406 0Z" fill="#001E36"/>
<path d="M12.825 39.6417V15.203C12.825 15.0366 12.8963 14.9418 13.0626 14.9418C13.4663 14.9418 13.8463 14.9418 14.3925 14.918C14.9625 14.8941 15.5563 14.8941 16.1976 14.8705C16.8388 14.8467 17.5275 14.8467 18.2638 14.8229C18.9999 14.7993 19.7124 14.7993 20.4249 14.7993C22.3725 14.7993 23.9874 15.0366 25.3176 15.5354C26.5098 15.9403 27.5969 16.6056 28.5 17.483C29.2653 18.2508 29.8566 19.1741 30.2338 20.1905C30.5901 21.188 30.78 22.2093 30.78 23.278C30.78 25.3205 30.3051 27.0066 29.355 28.3368C28.4049 29.6667 27.075 30.6642 25.5313 31.2342C23.9162 31.828 22.1349 32.0418 20.1876 32.0418C19.6176 32.0418 19.2375 32.0418 18.9999 32.018C18.7626 31.9941 18.4299 31.9941 17.9788 31.9941V39.6179C18.0024 39.7842 17.8838 39.9267 17.7174 39.9505H13.11C12.9201 39.9505 12.825 39.8555 12.825 39.6417ZM18.0024 19.5254V27.5054C18.3351 27.5292 18.6437 27.553 18.9287 27.553H20.1876C21.1138 27.553 22.0401 27.4105 22.9187 27.1255C23.6788 26.9118 24.3437 26.4605 24.8663 25.8666C25.365 25.273 25.6026 24.4655 25.6026 23.4205C25.6249 22.6783 25.4353 21.9451 25.0562 21.3066C24.6525 20.6892 24.0825 20.2143 23.3938 19.9529C22.515 19.5966 21.5649 19.4541 20.5913 19.478C19.9738 19.478 19.4274 19.478 18.9763 19.5018C18.5012 19.478 18.1688 19.5018 18.0024 19.5254ZM45.6 26.0568C44.8875 25.6767 44.1276 25.4155 43.32 25.2492C42.4412 25.0593 41.5626 24.9404 40.6599 24.9404C40.185 24.9168 39.6863 24.988 39.2349 25.1067C38.9263 25.178 38.6649 25.3443 38.4988 25.5816C38.3799 25.7718 38.3087 26.0091 38.3087 26.2229C38.3087 26.4366 38.4037 26.6504 38.5462 26.8405C38.76 27.1017 39.045 27.3155 39.3538 27.4818C39.9044 27.767 40.467 28.0285 41.04 28.2655C42.3225 28.693 43.5576 29.2866 44.6976 29.9991C45.4813 30.4979 46.1226 31.163 46.5737 31.9705C46.9538 32.7305 47.1437 33.5616 47.1201 34.4166C47.1437 35.533 46.8113 36.6492 46.1938 37.5755C45.5313 38.5235 44.607 39.258 43.5338 39.6891C42.3699 40.1879 40.9449 40.4493 39.2349 40.4493C38.1426 40.4493 37.0738 40.3542 36.0051 40.1405C35.1674 39.9958 34.3528 39.7402 33.5826 39.3805C33.4163 39.2855 33.2976 39.1191 33.3212 38.9292V34.7967C33.3212 34.7255 33.345 34.6304 33.4163 34.583C33.4875 34.5355 33.5588 34.5591 33.63 34.6068C34.5562 35.153 35.5299 35.533 36.5751 35.7704C37.4775 36.008 38.4276 36.1266 39.3774 36.1266C40.2801 36.1266 40.9213 36.008 41.3488 35.7942C41.7287 35.6279 41.9901 35.2242 41.9901 34.7967C41.9901 34.4643 41.7999 34.1555 41.4201 33.8466C41.04 33.538 40.2563 33.1818 39.0924 32.7305C37.8986 32.3098 36.7649 31.7349 35.7201 31.0205C34.9759 30.49 34.3592 29.8003 33.915 29.0016C33.5349 28.2417 33.345 27.4105 33.3688 26.5791C33.3688 25.558 33.6538 24.5841 34.1762 23.7055C34.77 22.7555 35.6488 21.9955 36.6699 21.5204C37.7863 20.9504 39.1875 20.6892 40.8737 20.6892C41.8476 20.6892 42.8451 20.7605 43.8188 20.903C44.5313 20.998 45.2199 21.188 45.8612 21.4491C45.9563 21.473 46.0513 21.568 46.0988 21.6629C46.1226 21.758 46.1462 21.853 46.1462 21.9479V25.8192C46.1462 25.9143 46.0988 26.0091 46.0275 26.0568C45.8138 26.1042 45.6951 26.1042 45.6 26.0568Z" fill="#31A8FF"/>
</svg>
