<svg width="34" height="51" viewBox="0 0 34 51" fill="none" xmlns="http://www.w3.org/2000/svg">
<path d="M8.39844 50.3906C13.0469 50.3906 16.7969 46.6406 16.7969 41.9922V33.5938H8.39844C3.75 33.5938 0 37.3438 0 41.9922C0 46.6406 3.75 50.3906 8.39844 50.3906Z" fill="#0ACF83"/>
<path d="M0 25.1953C0 20.5469 3.75 16.7969 8.39844 16.7969H16.7969V33.5938H8.39844C3.75 33.5938 0 29.8438 0 25.1953Z" fill="#A259FF"/>
<path d="M0 8.39844C0 3.75 3.75 0 8.39844 0H16.7969V16.7969H8.39844C3.75 16.7969 0 13.0469 0 8.39844Z" fill="#F24E1E"/>
<path d="M16.7969 0H25.1953C29.8438 0 33.5938 3.75 33.5938 8.39844C33.5938 13.0469 29.8438 16.7969 25.1953 16.7969H16.7969V0Z" fill="#FF7262"/>
<path d="M33.5938 25.1953C33.5938 29.8438 29.8438 33.5938 25.1953 33.5938C20.5469 33.5938 16.7969 29.8438 16.7969 25.1953C16.7969 20.5469 20.5469 16.7969 25.1953 16.7969C29.8438 16.7969 33.5938 20.5469 33.5938 25.1953Z" fill="#1ABCFE"/>
</svg>
