<svg width="57" height="57" viewBox="0 0 57 57" fill="none" xmlns="http://www.w3.org/2000/svg">
<path d="M41.2812 4H14.7188C8.24666 4 3 9.24666 3 15.7188V42.2812C3 48.7533 8.24666 54 14.7188 54H41.2812C47.7533 54 53 48.7533 53 42.2812V15.7188C53 9.24666 47.7533 4 41.2812 4Z" fill="#F0DB4F"/>
<path d="M16.1469 45.7836L19.973 43.468C20.7113 44.7768 21.3828 45.8842 22.9935 45.8842C24.5375 45.8842 25.5109 45.2803 25.5109 42.931V26.9549H30.2098V42.9975C30.2098 47.8641 27.357 50.0793 23.1949 50.0793C19.4361 50.0793 17.2543 48.1326 16.1467 45.7832M32.7619 45.2801L36.5877 43.065C37.5949 44.7098 38.9039 45.918 41.2195 45.918C43.1666 45.918 44.408 44.9445 44.408 43.6019C44.408 41.991 43.1326 41.4203 40.9846 40.4809L39.8101 39.9771C36.4201 38.5342 34.1713 36.7217 34.1713 32.8955C34.1713 29.3713 36.8564 26.6861 41.0519 26.6861C44.0391 26.6861 46.1871 27.7268 47.7308 30.4453L44.0725 32.7947C43.2668 31.3516 42.3945 30.781 41.0519 30.781C39.6758 30.781 38.8031 31.6537 38.8031 32.7947C38.8031 34.2043 39.6758 34.775 41.6894 35.6478L42.864 36.1512C46.858 37.8631 49.1068 39.608 49.1068 43.5348C49.1068 47.7641 45.7842 50.0797 41.3203 50.0797C36.9572 50.0797 34.1379 47.9988 32.7619 45.2801Z" fill="#323330"/>
</svg>
